<mxfile host="app.diagrams.net" modified="2020-12-19T10:34:22.226Z" agent="5.0 (Windows NT 10.0; Win64; x64) AppleWebKit/537.36 (KHTML, like Gecko) Chrome/87.0.4280.88 Safari/537.36 Edg/87.0.664.60" etag="KpE5ja_BpZytJRAX3Rwi" version="14.1.0" type="github">
  <diagram id="ri41nVY5fkGp89FVVyZM" name="Page-1">
    <mxGraphModel dx="1924" dy="1074" grid="1" gridSize="10" guides="1" tooltips="1" connect="1" arrows="1" fold="1" page="1" pageScale="1" pageWidth="1169" pageHeight="827" math="0" shadow="0">
      <root>
        <mxCell id="0" />
        <mxCell id="1" parent="0" />
        <mxCell id="2BRc4gGbmBc7M3y6UaOA-1" style="edgeStyle=orthogonalEdgeStyle;rounded=0;orthogonalLoop=1;jettySize=auto;html=1;" parent="1" source="2BRc4gGbmBc7M3y6UaOA-2" target="2BRc4gGbmBc7M3y6UaOA-4" edge="1">
          <mxGeometry relative="1" as="geometry" />
        </mxCell>
        <mxCell id="2BRc4gGbmBc7M3y6UaOA-2" value="" style="ellipse;fillColor=#000000;strokeColor=none;" parent="1" vertex="1">
          <mxGeometry x="90" y="482.5" width="25" height="25" as="geometry" />
        </mxCell>
        <mxCell id="2BRc4gGbmBc7M3y6UaOA-3" style="edgeStyle=orthogonalEdgeStyle;rounded=0;orthogonalLoop=1;jettySize=auto;html=1;exitX=1;exitY=0.5;exitDx=0;exitDy=0;" parent="1" source="2BRc4gGbmBc7M3y6UaOA-4" target="2BRc4gGbmBc7M3y6UaOA-6" edge="1">
          <mxGeometry relative="1" as="geometry" />
        </mxCell>
        <mxCell id="2BRc4gGbmBc7M3y6UaOA-4" value="&lt;span style=&quot;font-size: 10px&quot;&gt;On Login Page&lt;/span&gt;" style="rounded=1;whiteSpace=wrap;html=1;strokeWidth=1;" parent="1" vertex="1">
          <mxGeometry x="170" y="475" width="92.5" height="40" as="geometry" />
        </mxCell>
        <mxCell id="2BRc4gGbmBc7M3y6UaOA-5" style="edgeStyle=orthogonalEdgeStyle;rounded=0;orthogonalLoop=1;jettySize=auto;html=1;exitX=1;exitY=0.5;exitDx=0;exitDy=0;" parent="1" source="2BRc4gGbmBc7M3y6UaOA-6" edge="1">
          <mxGeometry relative="1" as="geometry">
            <mxPoint x="730" y="495" as="targetPoint" />
          </mxGeometry>
        </mxCell>
        <mxCell id="2BRc4gGbmBc7M3y6UaOA-6" value="&lt;span style=&quot;font-size: 10px&quot;&gt;On Homepage&lt;/span&gt;" style="rounded=1;whiteSpace=wrap;html=1;strokeWidth=1;" parent="1" vertex="1">
          <mxGeometry x="510" y="475" width="92.5" height="40" as="geometry" />
        </mxCell>
        <mxCell id="2BRc4gGbmBc7M3y6UaOA-7" value="&lt;font style=&quot;font-size: 10px&quot;&gt;keystroke [User != validUser || Psw != ValidPsw]&lt;br&gt;/ display Login Page&lt;/font&gt;" style="text;html=1;align=center;verticalAlign=middle;resizable=0;points=[];autosize=1;" parent="1" vertex="1">
          <mxGeometry x="101.25" y="405" width="230" height="40" as="geometry" />
        </mxCell>
        <mxCell id="2BRc4gGbmBc7M3y6UaOA-8" value="&lt;font style=&quot;font-size: 10px&quot;&gt;&lt;span style=&quot;color: rgb(0 , 0 , 0) ; font-family: &amp;#34;helvetica&amp;#34; ; font-style: normal ; font-weight: 400 ; letter-spacing: normal ; text-indent: 0px ; text-transform: none ; word-spacing: 0px ; background-color: rgb(248 , 249 , 250) ; display: inline ; float: none&quot;&gt;keystroke [User == validUser &amp;amp;&amp;amp; Psw == ValidPsw]&lt;/span&gt;&lt;br style=&quot;color: rgb(0 , 0 , 0) ; font-family: &amp;#34;helvetica&amp;#34; ; font-style: normal ; font-weight: 400 ; letter-spacing: normal ; text-indent: 0px ; text-transform: none ; word-spacing: 0px ; background-color: rgb(248 , 249 , 250)&quot;&gt;&lt;span style=&quot;color: rgb(0 , 0 , 0) ; font-family: &amp;#34;helvetica&amp;#34; ; font-style: normal ; font-weight: 400 ; letter-spacing: normal ; text-indent: 0px ; text-transform: none ; word-spacing: 0px ; background-color: rgb(248 , 249 , 250) ; display: inline ; float: none&quot;&gt;/ display HomePage&lt;/span&gt;&lt;/font&gt;" style="text;whiteSpace=wrap;html=1;align=center;" parent="1" vertex="1">
          <mxGeometry x="262.5" y="457.5" width="240" height="50" as="geometry" />
        </mxCell>
        <mxCell id="2BRc4gGbmBc7M3y6UaOA-9" style="edgeStyle=orthogonalEdgeStyle;rounded=0;orthogonalLoop=1;jettySize=auto;html=1;exitX=0.75;exitY=0;exitDx=0;exitDy=0;entryX=0.25;entryY=0;entryDx=0;entryDy=0;" parent="1" source="2BRc4gGbmBc7M3y6UaOA-4" target="2BRc4gGbmBc7M3y6UaOA-4" edge="1">
          <mxGeometry relative="1" as="geometry">
            <Array as="points">
              <mxPoint x="239" y="445" />
              <mxPoint x="193" y="445" />
            </Array>
          </mxGeometry>
        </mxCell>
        <mxCell id="2BRc4gGbmBc7M3y6UaOA-10" value="&lt;font style=&quot;font-size: 10px&quot;&gt;click [button == Groups]&amp;nbsp;&lt;br&gt;/ display Group List&lt;br&gt;&lt;/font&gt;" style="text;html=1;align=center;verticalAlign=middle;resizable=0;points=[];autosize=1;" parent="1" vertex="1">
          <mxGeometry x="602.5" y="457.5" width="120" height="30" as="geometry" />
        </mxCell>
        <mxCell id="2BRc4gGbmBc7M3y6UaOA-11" value="&lt;b style=&quot;font-size: 20px&quot;&gt;&lt;font style=&quot;font-size: 20px&quot;&gt;Use Case:&lt;br&gt;&lt;/font&gt;&lt;/b&gt;&lt;div style=&quot;font-size: 20px&quot;&gt;&lt;b&gt;&lt;font style=&quot;font-size: 20px&quot;&gt;Create Study Group&lt;/font&gt;&lt;/b&gt;&lt;/div&gt;" style="text;html=1;align=left;verticalAlign=middle;resizable=0;points=[];autosize=1;" parent="1" vertex="1">
          <mxGeometry x="50" y="70" width="200" height="30" as="geometry" />
        </mxCell>
        <mxCell id="2BRc4gGbmBc7M3y6UaOA-15" style="edgeStyle=orthogonalEdgeStyle;rounded=0;orthogonalLoop=1;jettySize=auto;html=1;exitX=1;exitY=0.5;exitDx=0;exitDy=0;entryX=0;entryY=0.5;entryDx=0;entryDy=0;" parent="1" source="2BRc4gGbmBc7M3y6UaOA-13" target="2BRc4gGbmBc7M3y6UaOA-14" edge="1">
          <mxGeometry relative="1" as="geometry" />
        </mxCell>
        <mxCell id="c8P_lnscIMawXXavqtpG-1" style="edgeStyle=orthogonalEdgeStyle;rounded=0;orthogonalLoop=1;jettySize=auto;html=1;exitX=0.25;exitY=1;exitDx=0;exitDy=0;entryX=0.432;entryY=1.009;entryDx=0;entryDy=0;entryPerimeter=0;" parent="1" source="2BRc4gGbmBc7M3y6UaOA-13" target="2BRc4gGbmBc7M3y6UaOA-6" edge="1">
          <mxGeometry relative="1" as="geometry" />
        </mxCell>
        <mxCell id="2BRc4gGbmBc7M3y6UaOA-13" value="&lt;span style=&quot;font-size: 10px&quot;&gt;On Group List&lt;/span&gt;" style="rounded=1;whiteSpace=wrap;html=1;strokeWidth=1;" parent="1" vertex="1">
          <mxGeometry x="730" y="475" width="92.5" height="40" as="geometry" />
        </mxCell>
        <mxCell id="2BRc4gGbmBc7M3y6UaOA-18" style="edgeStyle=orthogonalEdgeStyle;rounded=0;orthogonalLoop=1;jettySize=auto;html=1;exitX=1;exitY=0.5;exitDx=0;exitDy=0;entryX=0;entryY=0.5;entryDx=0;entryDy=0;" parent="1" source="2BRc4gGbmBc7M3y6UaOA-14" target="2BRc4gGbmBc7M3y6UaOA-17" edge="1">
          <mxGeometry relative="1" as="geometry" />
        </mxCell>
        <mxCell id="2BRc4gGbmBc7M3y6UaOA-24" style="edgeStyle=orthogonalEdgeStyle;rounded=0;orthogonalLoop=1;jettySize=auto;html=1;exitX=0.25;exitY=1;exitDx=0;exitDy=0;endArrow=classic;endFill=1;entryX=0.75;entryY=1;entryDx=0;entryDy=0;" parent="1" source="2BRc4gGbmBc7M3y6UaOA-14" target="2BRc4gGbmBc7M3y6UaOA-13" edge="1">
          <mxGeometry relative="1" as="geometry">
            <mxPoint x="993" y="595" as="targetPoint" />
            <Array as="points">
              <mxPoint x="993" y="595" />
              <mxPoint x="799" y="595" />
            </Array>
          </mxGeometry>
        </mxCell>
        <mxCell id="2BRc4gGbmBc7M3y6UaOA-14" value="&lt;span style=&quot;font-size: 10px&quot;&gt;On Group Creation&lt;/span&gt;" style="rounded=1;whiteSpace=wrap;html=1;strokeWidth=1;" parent="1" vertex="1">
          <mxGeometry x="970" y="475" width="92.5" height="40" as="geometry" />
        </mxCell>
        <mxCell id="2BRc4gGbmBc7M3y6UaOA-16" value="&lt;font style=&quot;font-size: 10px&quot;&gt;click [NewGroup==True]&amp;nbsp;&lt;br&gt;/ display Group Creation Page&lt;br&gt;&lt;/font&gt;" style="text;html=1;align=center;verticalAlign=middle;resizable=0;points=[];autosize=1;" parent="1" vertex="1">
          <mxGeometry x="820" y="457.5" width="150" height="30" as="geometry" />
        </mxCell>
        <mxCell id="2BRc4gGbmBc7M3y6UaOA-20" style="edgeStyle=orthogonalEdgeStyle;rounded=0;orthogonalLoop=1;jettySize=auto;html=1;exitX=0.5;exitY=1;exitDx=0;exitDy=0;entryX=0.5;entryY=1;entryDx=0;entryDy=0;" parent="1" source="2BRc4gGbmBc7M3y6UaOA-17" target="2BRc4gGbmBc7M3y6UaOA-14" edge="1">
          <mxGeometry relative="1" as="geometry">
            <Array as="points">
              <mxPoint x="1230" y="515" />
              <mxPoint x="1230" y="535" />
              <mxPoint x="1016" y="535" />
            </Array>
          </mxGeometry>
        </mxCell>
        <mxCell id="2BRc4gGbmBc7M3y6UaOA-22" style="edgeStyle=orthogonalEdgeStyle;rounded=0;orthogonalLoop=1;jettySize=auto;html=1;exitX=0.75;exitY=1;exitDx=0;exitDy=0;" parent="1" source="2BRc4gGbmBc7M3y6UaOA-17" edge="1">
          <mxGeometry relative="1" as="geometry">
            <Array as="points">
              <mxPoint x="1256" y="515" />
              <mxPoint x="1256" y="645" />
              <mxPoint x="790" y="645" />
            </Array>
            <mxPoint x="790" y="515" as="targetPoint" />
          </mxGeometry>
        </mxCell>
        <mxCell id="2BRc4gGbmBc7M3y6UaOA-35" style="edgeStyle=orthogonalEdgeStyle;rounded=0;orthogonalLoop=1;jettySize=auto;html=1;exitX=1;exitY=0.75;exitDx=0;exitDy=0;startArrow=none;startFill=0;endArrow=classic;endFill=1;entryX=0;entryY=0.5;entryDx=0;entryDy=0;" parent="1" source="2BRc4gGbmBc7M3y6UaOA-17" edge="1" target="2BRc4gGbmBc7M3y6UaOA-37">
          <mxGeometry relative="1" as="geometry">
            <mxPoint x="1530" y="495" as="targetPoint" />
            <Array as="points">
              <mxPoint x="1303" y="510" />
              <mxPoint x="1416" y="510" />
              <mxPoint x="1416" y="615" />
            </Array>
          </mxGeometry>
        </mxCell>
        <mxCell id="4SpssFcVf0RJiKGjFGFd-2" style="edgeStyle=orthogonalEdgeStyle;rounded=0;orthogonalLoop=1;jettySize=auto;html=1;exitX=1;exitY=0.25;exitDx=0;exitDy=0;entryX=0;entryY=0.25;entryDx=0;entryDy=0;" edge="1" parent="1" source="2BRc4gGbmBc7M3y6UaOA-17" target="2BRc4gGbmBc7M3y6UaOA-27">
          <mxGeometry relative="1" as="geometry" />
        </mxCell>
        <mxCell id="4SpssFcVf0RJiKGjFGFd-5" style="edgeStyle=orthogonalEdgeStyle;rounded=0;orthogonalLoop=1;jettySize=auto;html=1;exitX=1;exitY=0.5;exitDx=0;exitDy=0;entryX=0.25;entryY=0;entryDx=0;entryDy=0;" edge="1" parent="1" source="2BRc4gGbmBc7M3y6UaOA-17" target="2BRc4gGbmBc7M3y6UaOA-17">
          <mxGeometry relative="1" as="geometry">
            <mxPoint x="1740" y="495" as="targetPoint" />
            <Array as="points">
              <mxPoint x="1870" y="495" />
              <mxPoint x="1870" y="250" />
              <mxPoint x="1233" y="250" />
            </Array>
          </mxGeometry>
        </mxCell>
        <mxCell id="2BRc4gGbmBc7M3y6UaOA-17" value="&lt;span style=&quot;font-size: 10px&quot;&gt;On User Search&lt;/span&gt;" style="rounded=1;whiteSpace=wrap;html=1;strokeWidth=1;" parent="1" vertex="1">
          <mxGeometry x="1210" y="475" width="92.5" height="40" as="geometry" />
        </mxCell>
        <mxCell id="2BRc4gGbmBc7M3y6UaOA-19" value="&lt;font style=&quot;font-size: 10px&quot;&gt;click [AddMember==True]&amp;nbsp;&lt;br&gt;/ display UserSearch Page&lt;br&gt;&lt;/font&gt;" style="text;html=1;align=center;verticalAlign=middle;resizable=0;points=[];autosize=1;" parent="1" vertex="1">
          <mxGeometry x="1070" y="457.5" width="130" height="30" as="geometry" />
        </mxCell>
        <mxCell id="2BRc4gGbmBc7M3y6UaOA-21" value="&lt;font style=&quot;font-size: 10px&quot;&gt;click [button == Back]&amp;nbsp;&lt;br&gt;&amp;nbsp;/ display Group Creation Page&lt;br&gt;&lt;/font&gt;" style="text;html=1;align=center;verticalAlign=middle;resizable=0;points=[];autosize=1;" parent="1" vertex="1">
          <mxGeometry x="1060" y="535" width="150" height="30" as="geometry" />
        </mxCell>
        <mxCell id="2BRc4gGbmBc7M3y6UaOA-23" value="&lt;font style=&quot;font-size: 10px&quot;&gt;click [button == Cancel]&amp;nbsp;&lt;br&gt;/ display Group List&lt;br&gt;&lt;/font&gt;" style="text;html=1;align=center;verticalAlign=middle;resizable=0;points=[];autosize=1;" parent="1" vertex="1">
          <mxGeometry x="860" y="555" width="120" height="30" as="geometry" />
        </mxCell>
        <mxCell id="2BRc4gGbmBc7M3y6UaOA-26" value="&lt;font style=&quot;font-size: 10px&quot;&gt;click [button==Search]&amp;nbsp;&lt;br&gt;/ search &amp;amp;&amp;amp; display User Profile&lt;br&gt;&lt;/font&gt;" style="text;html=1;align=center;verticalAlign=middle;resizable=0;points=[];autosize=1;" parent="1" vertex="1">
          <mxGeometry x="1462.5" y="384" width="160" height="30" as="geometry" />
        </mxCell>
        <mxCell id="4SpssFcVf0RJiKGjFGFd-3" style="edgeStyle=orthogonalEdgeStyle;rounded=0;orthogonalLoop=1;jettySize=auto;html=1;exitX=0.25;exitY=0;exitDx=0;exitDy=0;entryX=0.75;entryY=0;entryDx=0;entryDy=0;" edge="1" parent="1" source="2BRc4gGbmBc7M3y6UaOA-27" target="2BRc4gGbmBc7M3y6UaOA-17">
          <mxGeometry relative="1" as="geometry">
            <Array as="points">
              <mxPoint x="1659" y="405" />
              <mxPoint x="1659" y="350" />
              <mxPoint x="1279" y="350" />
            </Array>
          </mxGeometry>
        </mxCell>
        <mxCell id="4SpssFcVf0RJiKGjFGFd-4" style="edgeStyle=orthogonalEdgeStyle;rounded=0;orthogonalLoop=1;jettySize=auto;html=1;exitX=0.75;exitY=0;exitDx=0;exitDy=0;" edge="1" parent="1" source="2BRc4gGbmBc7M3y6UaOA-27">
          <mxGeometry relative="1" as="geometry">
            <mxPoint x="1256" y="475" as="targetPoint" />
            <Array as="points">
              <mxPoint x="1706" y="405" />
              <mxPoint x="1706" y="310" />
              <mxPoint x="1256" y="310" />
            </Array>
          </mxGeometry>
        </mxCell>
        <mxCell id="2BRc4gGbmBc7M3y6UaOA-27" value="&lt;span style=&quot;font-size: 10px&quot;&gt;On User Profile&lt;/span&gt;" style="rounded=1;whiteSpace=wrap;html=1;strokeWidth=1;" parent="1" vertex="1">
          <mxGeometry x="1630" y="405" width="92.5" height="40" as="geometry" />
        </mxCell>
        <mxCell id="2BRc4gGbmBc7M3y6UaOA-29" value="&lt;font style=&quot;font-size: 10px&quot;&gt;click [button == Back]&amp;nbsp;&lt;br&gt;&amp;nbsp;/ display UserSearch Page&lt;br&gt;&lt;/font&gt;" style="text;html=1;align=center;verticalAlign=middle;resizable=0;points=[];autosize=1;" parent="1" vertex="1">
          <mxGeometry x="1496.25" y="320" width="140" height="30" as="geometry" />
        </mxCell>
        <mxCell id="2BRc4gGbmBc7M3y6UaOA-30" value="&lt;font style=&quot;font-size: 10px&quot;&gt;click [button==Add]&amp;nbsp;&lt;br&gt;/ add User &amp;amp;&amp;amp; Display User Search Page&lt;br&gt;&lt;/font&gt;" style="text;html=1;align=center;verticalAlign=middle;resizable=0;points=[];autosize=1;" parent="1" vertex="1">
          <mxGeometry x="1466.25" y="270" width="200" height="30" as="geometry" />
        </mxCell>
        <mxCell id="2BRc4gGbmBc7M3y6UaOA-36" value="&lt;font style=&quot;font-size: 10px&quot;&gt;click [Done==True &amp;amp;&amp;amp; GroupIsEmpty==False]&amp;nbsp;&lt;br&gt;/ display Group Resume Page&lt;br&gt;&lt;/font&gt;" style="text;html=1;align=center;verticalAlign=middle;resizable=0;points=[];autosize=1;" parent="1" vertex="1">
          <mxGeometry x="1410" y="540" width="220" height="30" as="geometry" />
        </mxCell>
        <mxCell id="2BRc4gGbmBc7M3y6UaOA-41" style="edgeStyle=orthogonalEdgeStyle;rounded=0;orthogonalLoop=1;jettySize=auto;html=1;exitX=1;exitY=0.5;exitDx=0;exitDy=0;startArrow=none;startFill=0;endArrow=classic;endFill=1;" parent="1" source="2BRc4gGbmBc7M3y6UaOA-37" target="2BRc4gGbmBc7M3y6UaOA-40" edge="1">
          <mxGeometry relative="1" as="geometry" />
        </mxCell>
        <mxCell id="2BRc4gGbmBc7M3y6UaOA-47" style="edgeStyle=orthogonalEdgeStyle;rounded=0;orthogonalLoop=1;jettySize=auto;html=1;exitX=0.5;exitY=1;exitDx=0;exitDy=0;startArrow=none;startFill=0;endArrow=classic;endFill=1;" parent="1" source="2BRc4gGbmBc7M3y6UaOA-37" edge="1">
          <mxGeometry relative="1" as="geometry">
            <mxPoint x="770" y="515" as="targetPoint" />
            <Array as="points">
              <mxPoint x="1576" y="695" />
              <mxPoint x="770" y="695" />
              <mxPoint x="770" y="515" />
            </Array>
          </mxGeometry>
        </mxCell>
        <mxCell id="2BRc4gGbmBc7M3y6UaOA-37" value="&lt;span style=&quot;font-size: 10px&quot;&gt;On Group Resume&lt;/span&gt;" style="rounded=1;whiteSpace=wrap;html=1;strokeWidth=1;" parent="1" vertex="1">
          <mxGeometry x="1530" y="595" width="92.5" height="40" as="geometry" />
        </mxCell>
        <mxCell id="2BRc4gGbmBc7M3y6UaOA-45" style="edgeStyle=orthogonalEdgeStyle;rounded=0;orthogonalLoop=1;jettySize=auto;html=1;exitX=1;exitY=0.5;exitDx=0;exitDy=0;startArrow=none;startFill=0;endArrow=classic;endFill=1;entryX=0;entryY=0.5;entryDx=0;entryDy=0;" parent="1" source="2BRc4gGbmBc7M3y6UaOA-40" edge="1" target="2BRc4gGbmBc7M3y6UaOA-46">
          <mxGeometry relative="1" as="geometry">
            <mxPoint x="1880" y="495.28571428571433" as="targetPoint" />
          </mxGeometry>
        </mxCell>
        <mxCell id="2BRc4gGbmBc7M3y6UaOA-40" value="&lt;span style=&quot;font-size: 10px&quot;&gt;On Group Chat&lt;/span&gt;" style="rounded=1;whiteSpace=wrap;html=1;strokeWidth=1;" parent="1" vertex="1">
          <mxGeometry x="1754" y="595" width="92.5" height="40" as="geometry" />
        </mxCell>
        <mxCell id="2BRc4gGbmBc7M3y6UaOA-44" value="&lt;font style=&quot;font-size: 10px&quot;&gt;click [button==Create]&amp;nbsp;&lt;br&gt;&lt;/font&gt;" style="text;html=1;align=center;verticalAlign=middle;resizable=0;points=[];autosize=1;" parent="1" vertex="1">
          <mxGeometry x="1622.5" y="595" width="120" height="20" as="geometry" />
        </mxCell>
        <mxCell id="2BRc4gGbmBc7M3y6UaOA-46" value="" style="ellipse;html=1;shape=endState;fillColor=#000000;strokeColor=#000000;" parent="1" vertex="1">
          <mxGeometry x="1940" y="600" width="30" height="30" as="geometry" />
        </mxCell>
        <mxCell id="R2_7T9VTJFXC3NQXO6xi-1" value="&lt;font style=&quot;font-size: 10px&quot;&gt;click [button == Cancel]&amp;nbsp;&lt;br&gt;/ display Group List&lt;br&gt;&lt;/font&gt;" style="text;html=1;align=center;verticalAlign=middle;resizable=0;points=[];autosize=1;" parent="1" vertex="1">
          <mxGeometry x="1130" y="605" width="120" height="30" as="geometry" />
        </mxCell>
        <mxCell id="R2_7T9VTJFXC3NQXO6xi-2" value="&lt;font style=&quot;font-size: 10px&quot;&gt;click [button == Cancel]&amp;nbsp;&lt;br&gt;/ display Group List&lt;br&gt;&lt;/font&gt;" style="text;html=1;align=center;verticalAlign=middle;resizable=0;points=[];autosize=1;" parent="1" vertex="1">
          <mxGeometry x="1450" y="655" width="120" height="30" as="geometry" />
        </mxCell>
        <mxCell id="c8P_lnscIMawXXavqtpG-2" value="&lt;font style=&quot;font-size: 10px&quot;&gt;click [button == Back || button == Home]&amp;nbsp;&lt;br&gt;&amp;nbsp;/ display Homepoage&lt;br&gt;&lt;/font&gt;" style="text;html=1;align=center;verticalAlign=middle;resizable=0;points=[];autosize=1;" parent="1" vertex="1">
          <mxGeometry x="555" y="535" width="200" height="30" as="geometry" />
        </mxCell>
        <mxCell id="4SpssFcVf0RJiKGjFGFd-6" value="&lt;font style=&quot;font-size: 10px&quot;&gt;click [button==Search &amp;amp;&amp;amp; UserNotFound==True]&amp;nbsp;&lt;br&gt;/ display UserSearch Page&amp;nbsp;&lt;br&gt;&lt;/font&gt;" style="text;html=1;align=center;verticalAlign=middle;resizable=0;points=[];autosize=1;" vertex="1" parent="1">
          <mxGeometry x="1580" y="457.5" width="230" height="30" as="geometry" />
        </mxCell>
      </root>
    </mxGraphModel>
  </diagram>
</mxfile>
